<svg xmlns="http://www.w3.org/2000/svg" xmlns:xlink="http://www.w3.org/1999/xlink" version="1.1" id="Layer_1" x="0px" y="0px" width="100px" height="100px" viewBox="0 0 100 100" enable-background="new 0 0 100 100" xml:space="preserve">
<g>
	<path fill="#000000" d="M59.737,71.692c-1.537-0.351-2.859-1.133-3.918-2.22c-0.563-0.563-1.065-1.2-1.521-1.879   c0.03-0.047,0.07-0.091,0.1-0.138c1.069-1.603,1.824-3.331,2.406-5.074l0.308-0.917l-0.545-0.793   c-0.604-0.881-1.144-1.273-1.938-1.696c-0.763-0.385-1.672-0.543-2.489-0.464c-1.664,0.156-2.824,0.955-3.734,1.717l-1.061,0.891   l0.377,1.17c0.611,1.888,1.391,3.477,2.398,5.068c-0.464,0.634-0.979,1.22-1.571,1.724c-1.106,0.952-2.485,1.585-4.051,1.859   c-1.565,0.26-3.272,0.193-4.98-0.204c1.396,1.084,3.142,1.778,5.02,1.979c1.875,0.223,3.921-0.204,5.659-1.198   c0.74-0.433,1.413-0.959,2.037-1.528c0.567,0.584,1.173,1.135,1.854,1.609c1.608,1.11,3.593,1.819,5.521,1.712   c1.928-0.053,3.671-0.801,5.111-1.795C63.002,71.909,61.279,72.03,59.737,71.692z"/>
	<path fill="#000000" d="M82.463,73.273c-0.114-0.051-0.231-0.094-0.347-0.144c1.823-1.84,3.42-3.898,4.61-6.208   c0.113-0.223,0.207-0.455,0.313-0.682c0.917,0.006,1.834,0.008,2.754-0.026c2.343-0.069,4.691-0.243,7.059-0.705   c-2.295-0.743-4.604-1.198-6.922-1.552c-0.64-0.102-1.283-0.169-1.923-0.25c0.299-1.029,0.503-2.08,0.588-3.145   c0.063-0.9,0.018-1.799-0.085-2.688c0.416-0.093,0.835-0.168,1.248-0.27c2.214-0.528,4.412-1.156,6.571-2.068   c-2.327-0.275-4.614-0.27-6.886-0.164c-0.471,0.02-0.937,0.065-1.406,0.097c-0.133-0.461-0.278-0.916-0.453-1.358   c0.138,0.452,0.241,0.909,0.332,1.368c-1.757,0.114-3.508,0.285-5.248,0.528c-2.242,0.318-4.472,0.72-6.685,1.265   c-2.211,0.528-4.409,1.158-6.568,2.073c2.327,0.279,4.613,0.275,6.887,0.167c2.275-0.09,4.53-0.32,6.773-0.637   c1.708-0.246,3.406-0.563,5.098-0.93c0.039,1.935-0.287,3.857-0.951,5.658c-1.42-0.164-2.84-0.301-4.263-0.387   c-2.331-0.135-4.667-0.19-7.011-0.1c-2.342,0.071-4.69,0.243-7.058,0.701c2.295,0.74,4.604,1.193,6.922,1.548   c2.317,0.37,4.643,0.597,6.971,0.744c1.059,0.063,2.117,0.102,3.178,0.123c-0.039,0.066-0.071,0.139-0.111,0.204   c-1.393,2.318-3.247,4.298-5.31,6.039c-1.548-0.637-3.107-1.242-4.701-1.765c-2.251-0.759-4.542-1.423-6.948-1.827   c1.923,1.503,3.961,2.741,6.04,3.888c1.02,0.573,2.054,1.114,3.099,1.629c-0.401,0.277-0.788,0.575-1.199,0.837   c-7.156,4.553-15.659,6.966-24.027,7.005c-8.352-0.094-16.756-2.598-23.748-7.093c-0.677-0.442-1.331-0.919-1.978-1.398   c1.089-0.618,2.172-1.251,3.234-1.921c2.327-1.443,4.606-2.978,6.756-4.767c-2.701,0.723-5.269,1.7-7.792,2.767   c-1.526,0.634-3.021,1.33-4.504,2.045c-1.568-1.391-2.968-2.925-4.114-4.613c0.706-0.11,1.412-0.212,2.116-0.331   c2.421-0.46,4.834-0.954,7.218-1.614c2.387-0.645,4.757-1.385,7.077-2.408c-2.53-0.157-5.01-0.034-7.473,0.19   c-2.465,0.203-4.901,0.577-7.329,0.981c-1.033,0.196-2.061,0.403-3.089,0.623c-0.578-1.267-0.972-2.584-1.159-3.918   c0.119,0.002,0.237,0.006,0.357,0.008c2.641-0.03,5.283-0.091,7.925-0.323c2.642-0.213,5.284-0.526,7.926-1.126   c-2.642-0.601-5.284-0.913-7.926-1.127c-2.642-0.232-5.284-0.293-7.925-0.322c-0.14,0.002-0.28,0.007-0.419,0.009   c0.07-0.701,0.181-1.4,0.385-2.085c0.232-0.864,0.651-1.904,1.013-2.94l1.097-3.074c0.726-2.043,1.451-4.074,2.226-6.063   c1.274-3.259,2.724-6.405,4.612-9.148c0.324-0.368,0.628-0.757,0.96-1.117c0.987-1.108,2.004-2.185,3.053-3.227   c0.126-0.125,0.255-0.251,0.381-0.377c2.008-1.557,4.293-2.773,6.797-3.561c3.918-1.238,8.152-1.727,12.4-1.883   c4.23-0.208,8.399,0.26,12.355,1.602c3.954,1.321,7.591,3.568,10.702,6.431c6.327,5.725,10.416,13.63,13.646,21.649   c-1.221-4.173-2.756-8.275-4.776-12.168c-1.032-2.004-2.192-3.957-3.493-5.821c0.616,0.704,1.218,1.428,1.789,2.192   c-0.836-2.846-2.402-5.479-4.28-7.832c-0.958-1.16-1.956-2.304-3.077-3.323c-0.411-0.377-0.828-0.734-1.247-1.095   c1.938-1.001,3.875-2.006,5.776-3.079c2.164-1.17,4.297-2.397,6.424-3.635c0.025,0.65-0.012,1.387-0.104,2.138   c-0.247,1.782-0.581,3.648-0.996,5.5c-0.789,3.727-1.736,7.473-2.495,11.326c2.153-3.297,3.878-6.807,5.339-10.468   c0.696-1.845,1.374-3.713,1.789-5.736c0.207-1.021,0.396-2.053,0.398-3.272c-0.006-0.616-0.058-1.283-0.408-2.146   c-0.188-0.428-0.498-0.94-1.032-1.357c-0.528-0.423-1.229-0.638-1.787-0.667l-0.574-0.03l-0.534,0.289   c-2.701,1.459-5.37,2.974-8.012,4.536c-2.67,1.514-5.261,3.165-7.884,4.761l-1.346,0.819c-0.961-0.5-1.947-0.955-2.961-1.349   c-4.212-1.663-8.822-2.283-13.264-2.225c-4.421,0.004-8.927,0.362-13.33,1.674c-1.208,0.347-2.402,0.8-3.566,1.334   c-1.017-0.791-2.05-1.557-3.093-2.308c-1.146-0.819-2.267-1.676-3.431-2.466c-2.327-1.583-4.625-3.212-7.009-4.712l-0.595-0.374   l-0.634,0.034c-0.553,0.03-1.204,0.206-1.748,0.566c-0.545,0.353-0.943,0.84-1.177,1.268c-0.479,0.876-0.593,1.613-0.678,2.284   c-0.132,1.333,0.021,2.485,0.18,3.61c0.326,2.242,0.924,4.329,1.604,6.378c0.659,2.053,1.478,4.038,2.338,5.995   c0.476,1.053,0.978,2.093,1.506,3.122c-0.715,1.497-1.354,3.012-1.959,4.512c-0.817,2.053-1.566,4.109-2.308,6.153l-1.113,3.057   c-0.357,1.012-0.772,1.982-1.125,3.212c-0.291,1.035-0.449,2.106-0.519,3.186c-1.242,0.048-2.481,0.113-3.723,0.221   c-2.642,0.212-5.284,0.526-7.926,1.131c2.642,0.604,5.284,0.919,7.926,1.13c1.258,0.109,2.519,0.178,3.778,0.225   c0.049,0.478,0.102,0.952,0.194,1.421c0.239,1.199,0.605,2.357,1.072,3.463c-0.149,0.039-0.298,0.067-0.448,0.109   c-2.387,0.642-4.755,1.385-7.074,2.412c2.531,0.16,5.01,0.037,7.473-0.186c0.389-0.032,0.773-0.093,1.161-0.132   c0.185,0.322,0.364,0.648,0.564,0.96c1.181,1.816,2.585,3.42,4.106,4.879c-2.215,1.182-4.416,2.393-6.55,3.736   c-2.327,1.443-4.606,2.979-6.754,4.771c2.703-0.722,5.272-1.697,7.793-2.763c2.53-1.052,4.983-2.252,7.42-3.485   c0.144-0.076,0.283-0.157,0.426-0.232c1.138,0.904,2.308,1.759,3.527,2.521c7.731,4.703,16.684,7.267,25.709,7.021   c8.996-0.315,17.767-3.279,25.026-8.426c0.662-0.487,1.309-1.002,1.941-1.531c0.495,0.229,0.981,0.469,1.48,0.69   c2.165,0.95,4.363,1.822,6.621,2.566c2.251,0.757,4.543,1.42,6.949,1.82c-1.92-1.504-3.958-2.746-6.038-3.894   C86.757,75.259,84.628,74.229,82.463,73.273z M19.738,18.513c0.024-0.011,0.015,0.002-0.01,0.026   C19.73,18.536,19.736,18.515,19.738,18.513z M21.47,34.19l-1.165-6.182c-0.348-2.043-0.668-4.091-0.823-6.048   c-0.072-0.941-0.051-1.879,0.043-2.64c1.87,1.264,3.772,2.483,5.663,3.716c1.177,0.77,2.4,1.474,3.598,2.213   c0.6,0.37,1.216,0.717,1.821,1.076c-1.777,1.173-3.412,2.574-4.784,4.208c-1.583,1.85-2.85,3.869-3.933,5.95   C21.747,35.723,21.615,34.95,21.47,34.19z"/>
	<path fill="#000000" d="M40.728,48.064c0-1.797-1.455-3.251-3.254-3.251c-1.791,0-3.248,1.455-3.248,3.251   c0,1.792,1.457,3.25,3.248,3.25C39.272,51.314,40.728,49.857,40.728,48.064z"/>
	<path fill="#000000" d="M66.016,44.813c-1.795,0-3.25,1.455-3.25,3.251c0,1.792,1.455,3.25,3.25,3.25s3.251-1.458,3.251-3.25   C69.267,46.268,67.811,44.813,66.016,44.813z"/>
</g>
</svg>